<mxfile host="Electron" modified="2024-03-25T21:29:40.430Z" agent="Mozilla/5.0 (Windows NT 10.0; Win64; x64) AppleWebKit/537.36 (KHTML, like Gecko) draw.io/21.6.8 Chrome/114.0.5735.289 Electron/25.5.0 Safari/537.36" etag="-T5IQkfKXQfwi0VIP1Z8" version="21.6.8" type="device">
  <diagram name="Страница — 1" id="_NNJ8Qyopue1inblywc9">
    <mxGraphModel dx="1214" dy="606" grid="1" gridSize="10" guides="1" tooltips="1" connect="1" arrows="1" fold="1" page="1" pageScale="1" pageWidth="827" pageHeight="1169" math="0" shadow="0">
      <root>
        <mxCell id="0" />
        <mxCell id="1" parent="0" />
        <mxCell id="GY1q3MS_324Swv_kfccG-53" style="edgeStyle=orthogonalEdgeStyle;rounded=0;orthogonalLoop=1;jettySize=auto;html=1;entryX=0.503;entryY=1.002;entryDx=0;entryDy=0;entryPerimeter=0;" edge="1" parent="1" source="GY1q3MS_324Swv_kfccG-48" target="GY1q3MS_324Swv_kfccG-39">
          <mxGeometry relative="1" as="geometry" />
        </mxCell>
        <mxCell id="GY1q3MS_324Swv_kfccG-48" value="" style="rounded=0;whiteSpace=wrap;html=1;" vertex="1" parent="1">
          <mxGeometry x="202.79999999999998" y="240" width="155.02" height="25.5" as="geometry" />
        </mxCell>
        <mxCell id="GY1q3MS_324Swv_kfccG-46" style="edgeStyle=orthogonalEdgeStyle;rounded=0;orthogonalLoop=1;jettySize=auto;html=1;exitX=1;exitY=0.5;exitDx=0;exitDy=0;entryX=0.525;entryY=0.007;entryDx=0;entryDy=0;entryPerimeter=0;" edge="1" parent="1" source="GY1q3MS_324Swv_kfccG-26" target="GY1q3MS_324Swv_kfccG-45">
          <mxGeometry relative="1" as="geometry">
            <mxPoint x="349" y="180" as="targetPoint" />
          </mxGeometry>
        </mxCell>
        <mxCell id="GY1q3MS_324Swv_kfccG-26" value="" style="rhombus;whiteSpace=wrap;html=1;" vertex="1" parent="1">
          <mxGeometry x="229" y="140" width="90" height="50" as="geometry" />
        </mxCell>
        <mxCell id="GY1q3MS_324Swv_kfccG-29" value="" style="shape=image;verticalLabelPosition=bottom;labelBackgroundColor=default;verticalAlign=top;aspect=fixed;imageAspect=0;image=data:image/png,iVBORw0KGgoAAAANSUhEUgAAASoAAAApCAYAAACC2WQ1AAAAAXNSR0IArs4c6QAAAARnQU1BAACxjwv8YQUAAAAJcEhZcwAADsMAAA7DAcdvqGQAAAseSURBVHhe7Z3Lrw3LF8fbnYvX1EA8EoIQ78QjIRGPGBAEMZGQCAMTQXIwIt5ihENIzI4BkUgIBiRe8Q4hMUEMMPKIv8Dtzzr99atf3+q9u/v0Pqf3OfVJ6lbr6qquWrVq9arHPnfQn5goEAgEasw/SRwIBAK1JRiqQCBQe4KhCgQCtScYqkAgUHuCoQoEArUnGKpAIFB7gqEKBAK1JxiqQCBQe4KhCgQCtScYqpw8fPgwWr9+fbR3797kTqCvuHnzZjRz5szo8uXLyZ1Af6epoUIhBg0aZGHp0qXJ3YHDp0+frN3z58+Ppk2bFm3evNnuY7AkF0Kg95g9e3a0c+fOaPv27dHYsWPtIzKQoL2u7iGDvubcuXOttQ/81q8Z69at4/eAf5YsWZLcGRi8fv36z7Bhwyxwnaazs9PkklOMgYr5/v37nxkzZpj8u7q6krsDA9o+ZswYa/u2bduSu81BTjwvuREoh3s+HReMfT2fFYrYh48fP/7p6Oj4W48bN24kKX5yTf3wJAYaP378iFavXm3X9+7di6ZMmWLXLhMnTkyu+hf6Yh87diy5U09GjBgR3bp1K4qVPdqwYUP05s2bJKX/Q9vlSfl0Mw3T5eHDh5uc7ty5Yx7pgwcPothwWfrZs2ejhQsXtlyGjCuWUGLjGP369Ss6deoUX/lo+fLlyRN+whpVBvv3749iqx8dPnw4lyIE+gYG7IULF+xaH5aBwrNnzyyeM2eOxY149+6dGQYMxNOnT81YzJs3z2L+Hc8aLH3Pnj1JDj8Yt6xw5syZ5Ck/GMFx48bZuIq9N3ueOuSi27FqzNGjRwu7du0MbintxSVuRNw5f93e/oTaRb+3C0xdqPNAmQIyTSuiexrDWfLR8k5WeZr6lUXLKIwppq1FCR6VhxMnTlgcd57FgfqzYsUKi/ft22dxf+fJkycWxwbE4mbs3r0bK2MelI9WLu9oGQWP7dKlS+YFF6WUocKFo8HadWBnkDlwf0Hb3suWLbM4L3QIO1GsBWg3pu7rPL0BckGm6AwyaYXeaI2DaUXedRbqxe6t+ss97sA6HbtY6kd3Z9HVf/LmOSbBMypP+dAV6tAI3uXqlPJdu3bN0qdPn25xT3n16pXFTA2r5uLFi9YvGNXcU7003Y5VY9ypH64jLhwr9tzHlSON0GzlvgxyOcuGotOXIi61O/WTa8sUhHe69UZW7USVUz90ArlQHrukgOuvqRqBqXYVSOZ6TyO0Y0hb1V7qCei46qagNPVzOj2rDe7OJPLUtEc7xqRloXqonsB7VB6hijFHndSmrD6XbMugsnsyLS9kqHghQpKwhRqhzqyS3jZUUqBm61PgGiqeR4ldJDdCOq3OVGmoJAP6MY0+clW8B2T8WG9pBgNcBo3BTz50W4ZIg0r6QJDRpb6MAZ5VmgxJGhkVn/FUmm8A8y7SfOPN1asqjLzK411ZaBzyrOpNoA8lDx9qB4FnaKu7HoY86bes/KKQodLL0riV4bqdUVt9AyuNa6h87UZWSm8nr6oVhsonHyl/HsOShyJ956L2ks/3wSGN4BowoTSfoVJ9sj56aj8D1QW94V2k+T5wzcotgtrO+xoZPfRXdSUPAeOrjw2xL7/qSvkYONqMDMlPrPykNzJWhad+WZBO4Nl2Jk9bhTqZkIWUMU95vYnaWTZU0Z4iss5D2fJcWaQ9H9dr8hlUpaUHqWtsfB4TZOmGvLgsA17Ec2yEvEeCzyCm8RkS7snY+OSuNhJ8cnDllDbYLpXt+sWVtfjz588WB7oZPXq0xR8+fLA4UD/cheStW7fatfj69avF8WCKTp8+bddCC+zkUz8LziaxywWLFy+2OIt03uPHj1u8cuVKi9M8f/7cYg5olkU7cZB1oDmNb7eOewcPHrTr27dvZ25kxAbLu+NI/thA2XWjTYnKDJVOyfLbOB/sVuiZgcSoUaMsjr+4FqfpK7lou9oXYk/Rnok9DW86gRPhRUCB2QFl50u/H212uBC0u5alV1XASW3YtWuXxS6PHj2ymHqkB+rjx48tjqc0FrsoH2lZ2/E6sCkdAdopXZk1a5bFLqS/ePHCrsv+MgIjRT/8/Pkzt5FqxMiRI5Or/x2bKMLkyZMtlmH3Ufk5Kt92KUpKJXwd2gx3S7dMqMvxAF/beyIXlI1tauRTZzQopk6dGt29ezfatGmTnSTH2GEIm4ERwZtJex1VwcDXAPGd8JYRW7BggcUutAd8ns3Lly8txij7UN8D3ob49u1bcvVfTwuuXLmSXEWlt/o3btxoxo6T4VX/6uL379/JVX5cQ5dFZYYKtw+GDBlisQvCQDHznDfpa1T/qqZqUmbfV7WMXBj4GF9+isDvs+oOgwLd6OzsNC8Mz6TI4OCrT8iDlh2GDh1qcR7k1YCvXvJeJkyYYLGgH6TzjX7C4npLLsrLtDGvPDBu8kJd41YEzo3x7q6uLu9UjOksbSvLpEmTkqtu5Lg0Gk/yTBtRyFBJuGlct7ysALNAuTXdKBOY4hRBSpc1VcvCPRDoog5atWqVxT0BBeJPnMD169ctrjMMLOnMmjVrLHaREa8K6WGRtZu3b99a7NNb9SkeXdqYvH//PrnK96PgNOfPn7dY6zs+XIPB9ZYtW/6u55Q56Mnh2kOHDlkZPiOF/PhzRm7bgA8js5MsHf/y5UtyFUXjx49PrrqZO3euxYwn10646APTyHYU9qh8L5M7yovSneZOw3piqXsL6o9iQlbH+HA7S5CfDqK89EAtIxe8MqYiGN/SJ3z7iLTy40VmffjAnfLnPb2u8vL8SFdoirZo0SKLXfSl960VKc0dXNRZ40MfJi3UuzDw0Qvypg3G4MGDk6vuE92AHlH22rVr7d8gz5+PQZ7lDXRsx44dpov83Igy06GjoyN52o/PqFKufrZE/vR0lV8MaGnDVz7118yA+mUSex1Ncbdv45fatjywtaitVLYoY+HbfReeUb52Qdu/zc4+uccTYgX4v+1Xzg1xj9DojFVP5EL+WNmTf1WH2kW/9xTaJ/kgT8qkzmytIy/S0B0fyousmoGMG5WVBXkI0mkX6kmaTw7Se/UfOuPqi7vtriMP3NNYouysdqndbqB8cHWT8UY5eY4WuGO4WUiPYzcv70PWyIv+Q966n9UeHYPgOfpd+Sk3LaMschsqCqRiCEqVI3BNelYlaTTPNRv0dUJ1ps2N0IBGyLTPVTDyIiuf8YYq5EJ+FKRqqjRU6IUGFwEZyaC7AwA9Sg847skQNIMBQDnux6IZaifBp79Ky/rQIHvSqafvGfqYtmswEsjTrI7IwS3b7QfSuEcabc7SrzQqL09IQ1t9Y5926YPTDMpA1938XFMm/dCMXIaqJ9AIKlVEgeqABlcVg9VHFXIhf90NVVlkyOmHZjB4eRbFD/RPKj+ekOb+/fsW++b5debAgQO2I3PkyBGbR1dNllxYK3DXrwi9DetfsW4U3oioEu3G+Y4FuGiRGa5evWpxoP/RckPF4i8DvlXnYFoFC9dS/Fb8idYsuchIuGEgkucDh5FikZkjBLFnWmr3LdAetNRQoUixC1/qQGMdQPEZBAwWDiyyu5K1xVqEdpdLb8DPRIZlHPREfuwacpaMQ5PxVNW73R7oP7TUUGlLGs+BAc7XDyVrJxgonOXii81Ws7aMe0IVcuF/TwRMkVoxNe1r+EAgH+TCCXymxILf0Z08edL+nj3X7XZUI1CCeGrRUrTbQJze1RnIlJWL8vlCXy5+V412BGNj5d1RCwwsBvGfWCECgUCgtrR8MT0QCAR6SjBUgUCg9gRDFQgEak8wVIFAoOZE0b/iBVFuh/R0swAAAABJRU5ErkJggg==;" vertex="1" parent="1">
          <mxGeometry x="211.26" y="243.25" width="138.1" height="19" as="geometry" />
        </mxCell>
        <mxCell id="GY1q3MS_324Swv_kfccG-30" value="" style="shape=image;verticalLabelPosition=bottom;labelBackgroundColor=default;verticalAlign=top;aspect=fixed;imageAspect=0;image=data:image/png,iVBORw0KGgoAAAANSUhEUgAAAFMAAAAqCAYAAADPn2cJAAAAAXNSR0IArs4c6QAAAARnQU1BAACxjwv8YQUAAAAJcEhZcwAADsMAAA7DAcdvqGQAAANQSURBVGhD7ZoxTiMxFIadvQAiSUlFKkRBk4gClJIcIVwBCg4QiQOEAySho4gE6dJQ0EBBEiEEiCgNEtClBFFwgKz/J3vWODOTmcVmPSt/kvXPjB1i/nl+fjOQm3GYxwi/hHoM4M00iDfTIN5Mg3gzDeLNNIhVM4+Ojlgulwsazv9rUGfa5Pr6GnUsNRxnhdPT01m9Xg/mvry8TOePj49ixDyhZqoGJGlxvL29BeNw7Dqvr6+zUqlE8y2Xy7Pz83NqOJa/R1RQWDdT/ixMJgvI+SIS1ZsPk+XviwgNIzRnbm9vw6HYxr9UjI5nNBqR7uzskGaF3d1dVigUxBljq6urjAcEHfd6PVId67v55eUl6dbWFqnryEBqtVriyh+kuTwNkOpYN/Pi4oJ0c3OTFDt6Pp+n3X1/f5+9v7/T9Szw8vJCypc56Rz8LvwVal6NAjsf+pEvkX/UJC7b3t6eGO02MmfquVTFamTe3NyQVioVdnh4SMuDT4rxyQR3t91uk7pOo9Eg7Xa7X3LpF4Spc6AraYsCUYf+Wq02twOqkR1Xu7kAak7Ms9PpiCvhWDVT1mtQfWmoZuLYVWSqSpKOop1YwKKcqdZluLM66uejcpALIM/H5UkVaznz6emJlE+Eajad6XRKin49Bx0fH9Nuf3Z2Jq78G8bjMbu7u2M8KqPzpII1M4fDIWmYkWAymZCG9V9dXZGura2RmkSWZkn4/PwkXVpaIl2IiNDULFrmsgyKStoyn/5UvkSqkd8ZNefvYi0ysTzA+vo6qQqWL0okvsvTE4dtEP39fp+dnJwEj4RWEKamJi4y1T498pDIkdDR9JKo2WwGn+N1nbj6fbAZSlCmhc05DDk26fjQUaoZSZqOagrqS7kT4lUWllqYkRKYiM9hrA1smmllmT88PNATDjeEzovFIu3OBwcH9Pbo+fmZbWxsUJ/Ox8cHqXyWzxTCVGdA5KLppFktWBlRpInMtDhlpiz0bb78sGmm1Rcdabm9vSWtVqukWcMpM2Uhb6NY/wmcMvP+/p50ZWWFHilN/2l4MBgE0W/lUVUsdydAOSRr0LhNJC1qqaY35FBT+P/PNIhTyzzreDMN4s00iDfTIN5Mg3gzDeLNNIg30yDeTGMw9hvk3F7phOx/1gAAAABJRU5ErkJggg==;" vertex="1" parent="1">
          <mxGeometry x="252.75" y="154.25" width="42.49" height="21.5" as="geometry" />
        </mxCell>
        <mxCell id="GY1q3MS_324Swv_kfccG-55" style="edgeStyle=orthogonalEdgeStyle;rounded=0;orthogonalLoop=1;jettySize=auto;html=1;entryX=0.512;entryY=0.025;entryDx=0;entryDy=0;entryPerimeter=0;" edge="1" parent="1" source="GY1q3MS_324Swv_kfccG-33" target="GY1q3MS_324Swv_kfccG-38">
          <mxGeometry relative="1" as="geometry" />
        </mxCell>
        <mxCell id="GY1q3MS_324Swv_kfccG-33" value="" style="shape=parallelogram;perimeter=parallelogramPerimeter;whiteSpace=wrap;html=1;fixedSize=1;" vertex="1" parent="1">
          <mxGeometry x="236.3" y="50" width="93.7" height="20" as="geometry" />
        </mxCell>
        <mxCell id="GY1q3MS_324Swv_kfccG-34" value="" style="shape=parallelogram;perimeter=parallelogramPerimeter;whiteSpace=wrap;html=1;fixedSize=1;" vertex="1" parent="1">
          <mxGeometry x="233.78" y="330" width="98.74" height="20" as="geometry" />
        </mxCell>
        <mxCell id="GY1q3MS_324Swv_kfccG-35" value="" style="shape=image;verticalLabelPosition=bottom;labelBackgroundColor=default;verticalAlign=top;aspect=fixed;imageAspect=0;image=data:image/png,iVBORw0KGgoAAAANSUhEUgAAABoAAAAcCAYAAAB/E6/TAAAAAXNSR0IArs4c6QAAAARnQU1BAACxjwv8YQUAAAAJcEhZcwAADsMAAA7DAcdvqGQAAAFFSURBVEhL7ZZBrkRAEIbbu4E4AicQa0scwRU4AnEPtjY4gI2t2LsAJ2DjAp6q10zHaG0kb1a+pPL3dCX9q6kuIc0L5Av8UP13HqPbPEa3uWQ0jiMJw5BomkYkScJwHIfkeU5c18UQAgN7Rtu2syzLGFmW0d159jwPBh0jCAK6y+fUqOu6zQQMWeq63ozYB+BxamTbNh4UxzHdecEawQOJ4BpBBXAIVHNEWZan+T3cy5AkCSqv0U3ToFqWhSqCa1RVFappmqh7iqJA1XUdVQit7A1IQUAv9rD9Ocof8bHRMAyzqqpb/irCgZ2mia7+iKJo64thGKhX4Bottwk1TVN8M/R9jxcDdO2boiiokPd9H9dcaGVvwLRDmo2lAvzrYEDZ3/CWEA0t12g9AA6EWYE17K25dZjB7MqFeD5ObvMY3eZLRoT8Anev7XBHOHrfAAAAAElFTkSuQmCC;" vertex="1" parent="1">
          <mxGeometry x="276.18" y="52.5" width="13.93" height="15" as="geometry" />
        </mxCell>
        <mxCell id="GY1q3MS_324Swv_kfccG-36" value="" style="shape=image;verticalLabelPosition=bottom;labelBackgroundColor=default;verticalAlign=top;aspect=fixed;imageAspect=0;image=data:image/png,iVBORw0KGgoAAAANSUhEUgAAABsAAAAcCAYAAACQ0cTtAAAAAXNSR0IArs4c6QAAAARnQU1BAACxjwv8YQUAAAAJcEhZcwAADsMAAA7DAcdvqGQAAAGVSURBVEhL7ZY9jsIwEIUnewJ+eoqkTUlHD5TpcoFICE4QcQAkOAElXe6QAgpSkQaJtEEcIIgjsJknO2JZsE20otjdT4reSI78PPYzwbqW0Jv4EPoW/rjZcDgky7KqJ0kSMfIiHBAT5vM5BwlPXYy30XVdaLfbhdbB2CzLMmi/34fWwdhsvV5De70etA7Gl5qDwRRFQe12G/WrGHUm08fnxUbn85kmkwkW0Gq1aLFYYFwLYqJhuVwihdPp9Lrf76/NZrNKpnyiKBJvP8eos81mA+10OhQEAYVhiO3M85wcx8HYarWCKhGmSsoJsfrBYIAub5H3j7vVoe3seDyiA6bRaNBoNEJ9z+VyEdVztGa73U5URLPZTFTfMbnsWrPD4QD1fZ9s20Z9y+l0gsqzU6E1i+MY6nke9J40TaHPxr8gzu4hZeKqaHPk7ynPsgoHv6tDabbdbiuzR4zHY4xxIk1Qmqk+K3IhZTCMumKUZnyvpJlcPU/Md4237hUjRmnGE7IJ/xTxxNKYa9Otu+X/r9yP8FvNiD4BeA8wuaDxMi0AAAAASUVORK5CYII=;" vertex="1" parent="1">
          <mxGeometry x="276.64" y="333.25" width="13.02" height="13.5" as="geometry" />
        </mxCell>
        <mxCell id="GY1q3MS_324Swv_kfccG-52" style="edgeStyle=orthogonalEdgeStyle;rounded=0;orthogonalLoop=1;jettySize=auto;html=1;" edge="1" parent="1" source="GY1q3MS_324Swv_kfccG-38">
          <mxGeometry relative="1" as="geometry">
            <mxPoint x="274" y="140" as="targetPoint" />
            <Array as="points">
              <mxPoint x="274" y="140" />
            </Array>
          </mxGeometry>
        </mxCell>
        <mxCell id="GY1q3MS_324Swv_kfccG-38" value="" style="strokeWidth=2;html=1;shape=mxgraph.flowchart.loop_limit;whiteSpace=wrap;" vertex="1" parent="1">
          <mxGeometry x="170.7" y="90" width="219.3" height="30" as="geometry" />
        </mxCell>
        <mxCell id="GY1q3MS_324Swv_kfccG-54" style="edgeStyle=orthogonalEdgeStyle;rounded=0;orthogonalLoop=1;jettySize=auto;html=1;entryX=0.482;entryY=-0.021;entryDx=0;entryDy=0;entryPerimeter=0;" edge="1" parent="1" source="GY1q3MS_324Swv_kfccG-39" target="GY1q3MS_324Swv_kfccG-34">
          <mxGeometry relative="1" as="geometry" />
        </mxCell>
        <mxCell id="GY1q3MS_324Swv_kfccG-39" value="" style="strokeWidth=2;html=1;shape=mxgraph.flowchart.loop_limit;whiteSpace=wrap;direction=west;" vertex="1" parent="1">
          <mxGeometry x="171.52" y="290" width="218.48" height="20" as="geometry" />
        </mxCell>
        <mxCell id="GY1q3MS_324Swv_kfccG-40" value="" style="shape=image;verticalLabelPosition=bottom;labelBackgroundColor=default;verticalAlign=top;aspect=fixed;imageAspect=0;image=data:image/png,iVBORw0KGgoAAAANSUhEUgAAAMoAAAAmCAYAAACF4wRRAAAAAXNSR0IArs4c6QAAAARnQU1BAACxjwv8YQUAAAAJcEhZcwAADsMAAA7DAcdvqGQAAAgwSURBVHhe7Z27z03PGseX0yOiFRE0EkLcg0hoiIpCSDQKDZ1KgpKCRukSEoUEoSUuhQSFuIUgFCgUKoK/wNmf56zv6zlzZmbNbL+ceF/zSSbP2mvWmnnmucyaWXu/eaf9HNE1Go0s/+plo9HI0BKl0SigJUqjUUBLlEajgJYojUYBv50oX79+7U6ePNmtWrWqmzZt2kR5+fJlf0WjMfn5rUQhGdasWdNdu3atu3r1aseb5sOHD1vdnDlzTP6JPHz4cCKhP3782J8tZ+vWrXbvgQMH+jONKQ/fo4zLypUr+Q7m54MHD/ozk4MzZ86Y3gsWLOjP1DFr1iy7//Lly/2ZxlRn7CfKlStXuqdPn3ajZOk2bNjQn50caFmI7rXwBPr27ZsdL1q0yGRj6jP2N/PsSUgUllrHjx/vzzYaU5Oxnihnz561JIH169ebbDSmNLYAK0Rr+1ShfgjW9Vu2bJm4h/X+/v37f3758qW/4he0xz6C67hGfPjwwT6rjRMnTvQ1eXQ9pXZ/Qh/+/nB/gk67du2yOsb04sWLvubnzxs3bkyMg7H7uhzYZPTEju6J2Bd6O6b2ifQtvSjoge1oK9Qz1x/XqT/aoN0SuI/+1SaS/mWTXDvoQwxoL6y+Q9uXgB706/VAL9qi/aHYHWszr4TBcKUwaA2YoFNiqC3qPAxK11FPYbAUDVal1Gm0pYDFSLVIVwp6CI7Rn2RRQql9n9AqJX3LXiQA4+M+xg04N2xT9vSob/pDNwjtp/t8fxTqcv2pLofu85MDesgHFG9HD+e5jn7kX84N3RdDemh8oPGqvaEYGitR5ABmn1KkVCxzVceAQE8MocFwHsOpDfrnfCxIUmhWLH0KeRRAFA96yHFyCuc4Rl85h4CN3R8Dx2mc6leO9m1yjhIi23g7Cv9kEL4/7Kz+GJe3OZI6inSI4ZMkxD+dY6hPSpgQ0l36DKFJhrGEceL10ESSYqxEoVMaV2APIYW8YzwafMypoMFwXWmfKTA+beWcnEJBEnO+0FgZC+P1DlDAo0MNug+70+bQbKrruTY2iQzZW/dzHX2Gsy11lJQemtC4JhaAslHKjuhNfWyWV12J/xi79IjpOhSXnrEShcZTnYd4ZVNBLsfFDCenUcZZLnnQV22Ng54IGDiFxkIJnVmSaDHkUErJTCo9U9dqokvV+/7CsZbYMPc0A9mI60JkI3QM0VMqVhdDbaXiRnqWxFV1xPjALUGPPkpqiSTDxQyrwebuL6XW0CG5mU5oUoiNhXPU5RIthgK/RG8tmyix2Rwbqj410am/2EwrG+aSXTZI2SlXHyYxOtKnYgQZG1cM+Ss1QYd95ahOFM02OUN5lLU5J8twsQCS00qyfggFamqmyzEUgOBn21gQ1iwbPLJPiUMVyKnlhOopKXL9DSW7t0FsYvP1oR29jVUYB7FGHNXYbchfvr6k3ervUZ4/f25yxYoVJod49uyZSb6gjMG35Pqme2QQkx59X7Np0yaTv8OdO3dMbty40WQNjx8/NjlyXDd//nw7Dnn79q3JUaB1S5cutWPBN/oj59hxzS8Z/C8B1q5dazLHp0+fTC5cuNBkyMWLF03GbA1D/cmG69atMxkiG8Ds2bP7o1/wHRxgo9COnz9/7o9G0fufSbx7//59d+vWLftSu8Zuvq2Yv65fv94flfmjOlEUuEuWLDFZyrx58/qj/+b27dsmCcBccJUESQ5+5ay2xvnpyatXr0yOnowmY9y/f9/k6tWrTXru3r1rMhWgKZSgseSrhSCVvTdv3mwyRP1B2B+T2lCyK1Fj8GPU06dP23HMRv8vGMehQ4fsuNQfVYniA/ef+p3TuXPnTB47dsyk5927d/3R/zqtFj/TjdOWnozLly83GePJkycmY0F47949k6VPYqEErQ0sJgYPwXH+/PmJwFi8eLHJEPUXC6BHjx6ZzE0WKdBn79693WgJbZ9TiZqDMbAyIQ5r8LbgeN++fd1oCWmfS/1RlSjjBO6OHTtMasnm4e9YSDycsnv37v7sL16/fm2ydhaO8ebNG5PeyfRZanTNtAowZscjR47YsdDTNrYs+f79u8m5c+eaxOnh/TGUoKWBNXPmTJPogo7AD1hZup46dcqWMjBjxgyT1N28edOOIdffjx8/TPL0B4Iu9Jsfu5ZZ6MGfYzAZyg6xRPWTL3/CoADHVsTKsmXLLFFSS1/P9OnT+6Ouu3Dhgkn04E8kdu7caZ9B9lIfSWynUkjtRh7862FtDjnn20q9zaKOa1Ibxxr09k2bXDalNZt6vSFhM8yGlHb8hn3obaAfS+z+FGqzdCM7mngm7O2L3vzQL5+xB22G9tf1sf5Cn2GT2Bsl9eGLbK3P6BlDL39ipcZfIJ/F2kDymf7QhTHl/FGVKHI2jdeAIijmHUhbMSN7dG3udWwN0h9H1rbJ9dKfsYTJrSDCOTEIPN3PG7xUoHh88qUmkxjoqmBFHz9WbI4eFPzo2x3qD50VfMhYMgEBp+vQw7/q5Rx958CWPtmwV6qvHPTnfe4nXOrUR4k/qhJFiv9TgduYOuSeMIKEUWBONor3KKzhBOvNRsOzZ88e2xdp7xODlwmwfft2k5OJ4kTRG4/Royz6frzxd6PXztu2bTMZwkaaRBotu6Ivbv50ihNFs8HRo0dNNhox/KtYwbmDBw/a8aVLl0xOOvolWBatLWvfOjT+HvS2KtwYs5/Vxn7o5c2fTDZRGBgDDN8YNBoxiBe9ZVIhdphgc69eJwPt3z40GgVUfTPfaPyttERpNApoidJoFNASpdEooCVKo1FAS5RGY5Cu+zeANYvd+WzD0QAAAABJRU5ErkJggg==;" vertex="1" parent="1">
          <mxGeometry x="228.51999999999998" y="95.25" width="103.66" height="19.5" as="geometry" />
        </mxCell>
        <mxCell id="GY1q3MS_324Swv_kfccG-41" value="Да" style="text;html=1;align=center;verticalAlign=middle;resizable=0;points=[];autosize=1;strokeColor=none;fillColor=none;" vertex="1" parent="1">
          <mxGeometry x="200" y="142" width="40" height="30" as="geometry" />
        </mxCell>
        <mxCell id="GY1q3MS_324Swv_kfccG-42" value="Нет" style="text;html=1;align=center;verticalAlign=middle;resizable=0;points=[];autosize=1;strokeColor=none;fillColor=none;" vertex="1" parent="1">
          <mxGeometry x="314" y="143" width="40" height="30" as="geometry" />
        </mxCell>
        <mxCell id="GY1q3MS_324Swv_kfccG-45" value="" style="rounded=0;whiteSpace=wrap;html=1;" vertex="1" parent="1">
          <mxGeometry x="309" y="178" width="76.25" height="30" as="geometry" />
        </mxCell>
        <mxCell id="GY1q3MS_324Swv_kfccG-44" value="" style="shape=image;verticalLabelPosition=bottom;labelBackgroundColor=default;verticalAlign=top;aspect=fixed;imageAspect=0;image=data:image/png,iVBORw0KGgoAAAANSUhEUgAAAGkAAAAnCAYAAAAM0GYmAAAAAXNSR0IArs4c6QAAAARnQU1BAACxjwv8YQUAAAAJcEhZcwAADsMAAA7DAcdvqGQAAAO9SURBVHhe7ZvLSitBEIYr5wVE3Sm4UJeCguJC117AtfgCguheBPUF9Al8Ai8guFK8gAsVwQuiC3GjkgeIqE+g/Ve6zslMusfJODknfawPmqpMx86k/+muqg4WPgykNDS/rFUaGBUpAFSkAFCRAkBFCgAVKQASU/BCoWC9Mpqt/xsSV1KpVKKpqSn2x8bG2CrZeHl5odXVVeru7uaHH218fJz29vbsO/wkitTa2kpdXV3s9/f3s1VqBwJBkIWFBRodHaXT01Pa2Nigy8tLmpiYoKWlJftOD9jukjArCHvcx+7urr2i1Mri4iLP4ezsrL1SxojF19Hg+/hSJBnEbH32ilILT09Pv+cQfpyBgQHuM2HFXqkmcbs7OztjawbirU+pnaOjI7YIG52dnexXMjk5yXZra4u3RReJIp2fn7PFPgru7u54b0XQQwBME/R+Ojs7O2wxXy6GhoasR/Tw8GC9KIki3dzcsB0eHqbNzU3q6+ujg4MDvmaWLge95+dnfh0KyLAku8rS8JDWwuPjI9s0idf9/b31oiSKdHh4aD2i5eVlzkjMFsnZibC9vW09xQUeZtDU1MQ2Tltbm/WI3t/frRejHJqqkYDX3NzMwe329tb2lJGsLyngKX8Sr5WVFXulmq/e411JyOHB6+srTU9PU29vL7+O8/b2Zj2lXnhFOjk5YYusZGZmhn0XWuTWH69IV1dXbOfn59nGkYDY0dHBtpKWlhZvNvNTKRaL1osiZQ7o6emxXhSnSMjXr6+v2R8ZGWFbCfolIMb7kaZji0RtlTdSAiBDy8rfzu7kzDNNFtze3m69KE6RLi4u2JqkwVmASYGGG4j3I3aZWMcpe17gC87NzUVKgFCQ+ZEYH0fSbsy1L+47sztkGehCBufCxCnuTzpvygt8Bj7PpP8fa2trX2ZKjQbOPHHPaPEMGSA7Rl/8XK8Sp0iSXrtEEgFdg8rNoOV11odxZCw5kAxJJOA7n4NouI4yx3WuJzhFkolGk9WCQXynuQImE/24qXoQqkgQA0Lg3iEUvgd2BtmR4CdRJZIMiD/EZMhAaFhZST9ZSAEMMetBqCIBzA0ebhELFoK5tsA4zpWUFQiLG3A9GbKFpmk+QhbpO3jrpCxIATw4OMi2kv39fcx+qqZEyVUkHMjihMKVtivZyU0kKXDrUcT+dHITSX6wwkpC8YnK3PdLYxYw1vr6OvvHx8fB/Y71LUwMyI3K+ipN1pIWjOlrUiL8z+j/JwVAromDUh9UpABQkQJARQoAFSkAVKSGh+gTcvyCrM+vnFwAAAAASUVORK5CYII=;" vertex="1" parent="1">
          <mxGeometry x="320.20000000000005" y="183" width="53.85" height="20" as="geometry" />
        </mxCell>
        <mxCell id="GY1q3MS_324Swv_kfccG-47" value="" style="endArrow=none;html=1;rounded=0;entryX=0.524;entryY=1;entryDx=0;entryDy=0;entryPerimeter=0;exitX=0;exitY=0.5;exitDx=0;exitDy=0;" edge="1" parent="1" source="GY1q3MS_324Swv_kfccG-26" target="GY1q3MS_324Swv_kfccG-45">
          <mxGeometry width="50" height="50" relative="1" as="geometry">
            <mxPoint x="209" y="220" as="sourcePoint" />
            <mxPoint x="349" y="220" as="targetPoint" />
            <Array as="points">
              <mxPoint x="209" y="165" />
              <mxPoint x="209" y="220" />
              <mxPoint x="349" y="220" />
            </Array>
          </mxGeometry>
        </mxCell>
        <mxCell id="GY1q3MS_324Swv_kfccG-51" value="" style="endArrow=classic;html=1;rounded=0;entryX=0.49;entryY=0.002;entryDx=0;entryDy=0;entryPerimeter=0;" edge="1" parent="1" target="GY1q3MS_324Swv_kfccG-48">
          <mxGeometry width="50" height="50" relative="1" as="geometry">
            <mxPoint x="279" y="220" as="sourcePoint" />
            <mxPoint x="319" y="240" as="targetPoint" />
          </mxGeometry>
        </mxCell>
      </root>
    </mxGraphModel>
  </diagram>
</mxfile>
